<mxfile host="app.diagrams.net" modified="2020-12-15T21:01:01.077Z" agent="5.0 (Windows NT 10.0; Win64; x64) AppleWebKit/537.36 (KHTML, like Gecko) Chrome/87.0.4280.88 Safari/537.36" etag="gZ3a6EtOBP16bFUl4xut" version="14.0.1" type="github" pages="2">
  <diagram id="EKRGBSev4e_WVwf8x_E5" name="Page-1">
    <mxGraphModel dx="981" dy="526" grid="1" gridSize="10" guides="1" tooltips="1" connect="1" arrows="1" fold="1" page="1" pageScale="1" pageWidth="827" pageHeight="1169" math="0" shadow="0">
      <root>
        <mxCell id="0" />
        <mxCell id="1" parent="0" />
        <mxCell id="OKItppNLryK3JapKcTWj-14" value="alt" style="shape=umlFrame;whiteSpace=wrap;html=1;" vertex="1" parent="1">
          <mxGeometry x="180" y="250" width="630" height="250" as="geometry" />
        </mxCell>
        <mxCell id="GVtb8p-TRKz6r_yzucfs-7" value="" style="shape=umlLifeline;participant=umlActor;perimeter=lifelinePerimeter;whiteSpace=wrap;html=1;container=1;collapsible=0;recursiveResize=0;verticalAlign=top;spacingTop=36;outlineConnect=0;" vertex="1" parent="1">
          <mxGeometry x="60" y="40" width="20" height="480" as="geometry" />
        </mxCell>
        <mxCell id="OKItppNLryK3JapKcTWj-16" value="1.3: return error message" style="html=1;verticalAlign=bottom;endArrow=open;dashed=1;endSize=8;" edge="1" parent="GVtb8p-TRKz6r_yzucfs-7" source="OKItppNLryK3JapKcTWj-5">
          <mxGeometry relative="1" as="geometry">
            <mxPoint x="90" y="290" as="sourcePoint" />
            <mxPoint x="10" y="290" as="targetPoint" />
          </mxGeometry>
        </mxCell>
        <mxCell id="OKItppNLryK3JapKcTWj-1" value=":ShoppingCart" style="shape=umlLifeline;perimeter=lifelinePerimeter;whiteSpace=wrap;html=1;container=1;collapsible=0;recursiveResize=0;outlineConnect=0;" vertex="1" parent="1">
          <mxGeometry x="240" y="40" width="100" height="480" as="geometry" />
        </mxCell>
        <mxCell id="OKItppNLryK3JapKcTWj-5" value="" style="html=1;points=[];perimeter=orthogonalPerimeter;" vertex="1" parent="OKItppNLryK3JapKcTWj-1">
          <mxGeometry x="45" y="70" width="10" height="400" as="geometry" />
        </mxCell>
        <mxCell id="OKItppNLryK3JapKcTWj-2" value=":OrderService" style="shape=umlLifeline;perimeter=lifelinePerimeter;whiteSpace=wrap;html=1;container=1;collapsible=0;recursiveResize=0;outlineConnect=0;" vertex="1" parent="1">
          <mxGeometry x="414" y="40" width="100" height="480" as="geometry" />
        </mxCell>
        <mxCell id="OKItppNLryK3JapKcTWj-8" value="" style="html=1;points=[];perimeter=orthogonalPerimeter;" vertex="1" parent="OKItppNLryK3JapKcTWj-2">
          <mxGeometry x="45" y="90" width="10" height="40" as="geometry" />
        </mxCell>
        <mxCell id="OKItppNLryK3JapKcTWj-3" value=":ProductService" style="shape=umlLifeline;perimeter=lifelinePerimeter;whiteSpace=wrap;html=1;container=1;collapsible=0;recursiveResize=0;outlineConnect=0;" vertex="1" parent="1">
          <mxGeometry x="530" y="40" width="100" height="480" as="geometry" />
        </mxCell>
        <mxCell id="OKItppNLryK3JapKcTWj-11" value="" style="html=1;points=[];perimeter=orthogonalPerimeter;" vertex="1" parent="OKItppNLryK3JapKcTWj-3">
          <mxGeometry x="45" y="160" width="10" height="30" as="geometry" />
        </mxCell>
        <mxCell id="OKItppNLryK3JapKcTWj-4" value=":Order" style="shape=umlLifeline;perimeter=lifelinePerimeter;whiteSpace=wrap;html=1;container=1;collapsible=0;recursiveResize=0;outlineConnect=0;" vertex="1" parent="1">
          <mxGeometry x="650" y="40" width="100" height="480" as="geometry" />
        </mxCell>
        <mxCell id="OKItppNLryK3JapKcTWj-19" value="" style="html=1;points=[];perimeter=orthogonalPerimeter;" vertex="1" parent="OKItppNLryK3JapKcTWj-4">
          <mxGeometry x="45" y="330" width="10" height="30" as="geometry" />
        </mxCell>
        <mxCell id="6_jYdN8yFfIzJFtrDP18-1" value="" style="html=1;points=[];perimeter=orthogonalPerimeter;" vertex="1" parent="OKItppNLryK3JapKcTWj-4">
          <mxGeometry x="45" y="380" width="10" height="30" as="geometry" />
        </mxCell>
        <mxCell id="OKItppNLryK3JapKcTWj-6" value="1: putInBasket(orderId, productId)" style="html=1;verticalAlign=bottom;endArrow=block;entryX=0;entryY=0;" edge="1" target="OKItppNLryK3JapKcTWj-5" parent="1" source="GVtb8p-TRKz6r_yzucfs-7">
          <mxGeometry relative="1" as="geometry">
            <mxPoint x="135" y="110" as="sourcePoint" />
          </mxGeometry>
        </mxCell>
        <mxCell id="OKItppNLryK3JapKcTWj-7" value="1.6: total" style="html=1;verticalAlign=bottom;endArrow=open;dashed=1;endSize=8;exitX=-0.048;exitY=0.953;exitDx=0;exitDy=0;exitPerimeter=0;" edge="1" source="OKItppNLryK3JapKcTWj-5" parent="1" target="GVtb8p-TRKz6r_yzucfs-7">
          <mxGeometry relative="1" as="geometry">
            <mxPoint x="135" y="186" as="targetPoint" />
          </mxGeometry>
        </mxCell>
        <mxCell id="OKItppNLryK3JapKcTWj-9" value="1.1: getOrder(orderId)" style="html=1;verticalAlign=bottom;endArrow=block;entryX=0;entryY=0;" edge="1" target="OKItppNLryK3JapKcTWj-8" parent="1" source="OKItppNLryK3JapKcTWj-1">
          <mxGeometry relative="1" as="geometry">
            <mxPoint x="389" y="130" as="sourcePoint" />
          </mxGeometry>
        </mxCell>
        <mxCell id="OKItppNLryK3JapKcTWj-10" value="1.1.1: order" style="html=1;verticalAlign=bottom;endArrow=open;dashed=1;endSize=8;exitX=0;exitY=0.95;" edge="1" source="OKItppNLryK3JapKcTWj-8" parent="1" target="OKItppNLryK3JapKcTWj-1">
          <mxGeometry relative="1" as="geometry">
            <mxPoint x="389" y="206" as="targetPoint" />
          </mxGeometry>
        </mxCell>
        <mxCell id="OKItppNLryK3JapKcTWj-12" value="1.2: getProduct(productId)" style="html=1;verticalAlign=bottom;endArrow=block;entryX=0;entryY=0;" edge="1" target="OKItppNLryK3JapKcTWj-11" parent="1" source="OKItppNLryK3JapKcTWj-1">
          <mxGeometry relative="1" as="geometry">
            <mxPoint x="535" y="200" as="sourcePoint" />
          </mxGeometry>
        </mxCell>
        <mxCell id="OKItppNLryK3JapKcTWj-13" value="1.2.1: product" style="html=1;verticalAlign=bottom;endArrow=open;dashed=1;endSize=8;exitX=0;exitY=0.95;" edge="1" source="OKItppNLryK3JapKcTWj-11" parent="1" target="OKItppNLryK3JapKcTWj-5">
          <mxGeometry relative="1" as="geometry">
            <mxPoint x="535" y="276" as="targetPoint" />
          </mxGeometry>
        </mxCell>
        <mxCell id="OKItppNLryK3JapKcTWj-15" value="[product == null]" style="text;html=1;strokeColor=none;fillColor=none;align=center;verticalAlign=middle;whiteSpace=wrap;rounded=0;" vertex="1" parent="1">
          <mxGeometry x="190" y="285" width="90" height="20" as="geometry" />
        </mxCell>
        <mxCell id="OKItppNLryK3JapKcTWj-17" value="" style="line;strokeWidth=1;fillColor=none;align=left;verticalAlign=middle;spacingTop=-1;spacingLeft=3;spacingRight=3;rotatable=0;labelPosition=right;points=[];portConstraint=eastwest;dashed=1;" vertex="1" parent="1">
          <mxGeometry x="180" y="346" width="630" height="8" as="geometry" />
        </mxCell>
        <mxCell id="OKItppNLryK3JapKcTWj-18" value="[product != null]" style="text;html=1;strokeColor=none;fillColor=none;align=center;verticalAlign=middle;whiteSpace=wrap;rounded=0;" vertex="1" parent="1">
          <mxGeometry x="190" y="354" width="90" height="20" as="geometry" />
        </mxCell>
        <mxCell id="OKItppNLryK3JapKcTWj-20" value="1.4: addProduct(product)" style="html=1;verticalAlign=bottom;endArrow=block;entryX=0;entryY=0;" edge="1" target="OKItppNLryK3JapKcTWj-19" parent="1" source="OKItppNLryK3JapKcTWj-5">
          <mxGeometry relative="1" as="geometry">
            <mxPoint x="695" y="360" as="sourcePoint" />
          </mxGeometry>
        </mxCell>
        <mxCell id="OKItppNLryK3JapKcTWj-21" value="" style="html=1;verticalAlign=bottom;endArrow=open;dashed=1;endSize=8;exitX=0;exitY=0.95;" edge="1" source="OKItppNLryK3JapKcTWj-19" parent="1" target="OKItppNLryK3JapKcTWj-5">
          <mxGeometry relative="1" as="geometry">
            <mxPoint x="695" y="436" as="targetPoint" />
          </mxGeometry>
        </mxCell>
        <mxCell id="6_jYdN8yFfIzJFtrDP18-2" value="1.5: getTotal()" style="html=1;verticalAlign=bottom;endArrow=block;entryX=0;entryY=0;" edge="1" target="6_jYdN8yFfIzJFtrDP18-1" parent="1" source="OKItppNLryK3JapKcTWj-5">
          <mxGeometry relative="1" as="geometry">
            <mxPoint x="695" y="420" as="sourcePoint" />
          </mxGeometry>
        </mxCell>
        <mxCell id="6_jYdN8yFfIzJFtrDP18-3" value="1.5.1: total" style="html=1;verticalAlign=bottom;endArrow=open;dashed=1;endSize=8;exitX=0;exitY=0.95;" edge="1" source="6_jYdN8yFfIzJFtrDP18-1" parent="1" target="OKItppNLryK3JapKcTWj-5">
          <mxGeometry relative="1" as="geometry">
            <mxPoint x="695" y="496" as="targetPoint" />
          </mxGeometry>
        </mxCell>
      </root>
    </mxGraphModel>
  </diagram>
  <diagram id="GtJLlontTZuKlV_raQuW" name="Class diagram">
    <mxGraphModel dx="813" dy="435" grid="1" gridSize="10" guides="1" tooltips="1" connect="1" arrows="1" fold="1" page="1" pageScale="1" pageWidth="827" pageHeight="1169" math="0" shadow="0">
      <root>
        <mxCell id="s9bLkPgYa7nVFREP0og5-0" />
        <mxCell id="s9bLkPgYa7nVFREP0og5-1" parent="s9bLkPgYa7nVFREP0og5-0" />
        <mxCell id="s9bLkPgYa7nVFREP0og5-28" style="edgeStyle=orthogonalEdgeStyle;rounded=0;orthogonalLoop=1;jettySize=auto;html=1;exitX=1;exitY=0.5;exitDx=0;exitDy=0;startArrow=none;startFill=0;endArrow=classic;endFill=1;" edge="1" parent="s9bLkPgYa7nVFREP0og5-1" source="s9bLkPgYa7nVFREP0og5-2" target="s9bLkPgYa7nVFREP0og5-6">
          <mxGeometry relative="1" as="geometry" />
        </mxCell>
        <mxCell id="s9bLkPgYa7nVFREP0og5-30" value="1" style="edgeLabel;html=1;align=center;verticalAlign=middle;resizable=0;points=[];" vertex="1" connectable="0" parent="s9bLkPgYa7nVFREP0og5-28">
          <mxGeometry x="0.6857" relative="1" as="geometry">
            <mxPoint x="-1" y="9" as="offset" />
          </mxGeometry>
        </mxCell>
        <mxCell id="s9bLkPgYa7nVFREP0og5-2" value="ShopingCart" style="swimlane;fontStyle=1;align=center;verticalAlign=top;childLayout=stackLayout;horizontal=1;startSize=26;horizontalStack=0;resizeParent=1;resizeParentMax=0;resizeLast=0;collapsible=1;marginBottom=0;" vertex="1" parent="s9bLkPgYa7nVFREP0og5-1">
          <mxGeometry x="20" y="40" width="210" height="60" as="geometry" />
        </mxCell>
        <mxCell id="s9bLkPgYa7nVFREP0og5-4" value="" style="line;strokeWidth=1;fillColor=none;align=left;verticalAlign=middle;spacingTop=-1;spacingLeft=3;spacingRight=3;rotatable=0;labelPosition=right;points=[];portConstraint=eastwest;" vertex="1" parent="s9bLkPgYa7nVFREP0og5-2">
          <mxGeometry y="26" width="210" height="8" as="geometry" />
        </mxCell>
        <mxCell id="s9bLkPgYa7nVFREP0og5-5" value="+ putInBasket(String, String): String" style="text;strokeColor=none;fillColor=none;align=left;verticalAlign=top;spacingLeft=4;spacingRight=4;overflow=hidden;rotatable=0;points=[[0,0.5],[1,0.5]];portConstraint=eastwest;" vertex="1" parent="s9bLkPgYa7nVFREP0og5-2">
          <mxGeometry y="34" width="210" height="26" as="geometry" />
        </mxCell>
        <mxCell id="s9bLkPgYa7nVFREP0og5-19" style="edgeStyle=orthogonalEdgeStyle;rounded=0;orthogonalLoop=1;jettySize=auto;html=1;exitX=1;exitY=0.5;exitDx=0;exitDy=0;" edge="1" parent="s9bLkPgYa7nVFREP0og5-1" source="s9bLkPgYa7nVFREP0og5-6" target="s9bLkPgYa7nVFREP0og5-14">
          <mxGeometry relative="1" as="geometry" />
        </mxCell>
        <mxCell id="s9bLkPgYa7nVFREP0og5-20" value="*" style="edgeLabel;html=1;align=center;verticalAlign=middle;resizable=0;points=[];" vertex="1" connectable="0" parent="s9bLkPgYa7nVFREP0og5-19">
          <mxGeometry x="0.7841" y="-2" relative="1" as="geometry">
            <mxPoint y="12" as="offset" />
          </mxGeometry>
        </mxCell>
        <mxCell id="s9bLkPgYa7nVFREP0og5-6" value="OrderService" style="swimlane;fontStyle=1;align=center;verticalAlign=top;childLayout=stackLayout;horizontal=1;startSize=26;horizontalStack=0;resizeParent=1;resizeParentMax=0;resizeLast=0;collapsible=1;marginBottom=0;" vertex="1" parent="s9bLkPgYa7nVFREP0og5-1">
          <mxGeometry x="320" y="40" width="160" height="60" as="geometry" />
        </mxCell>
        <mxCell id="s9bLkPgYa7nVFREP0og5-8" value="" style="line;strokeWidth=1;fillColor=none;align=left;verticalAlign=middle;spacingTop=-1;spacingLeft=3;spacingRight=3;rotatable=0;labelPosition=right;points=[];portConstraint=eastwest;" vertex="1" parent="s9bLkPgYa7nVFREP0og5-6">
          <mxGeometry y="26" width="160" height="8" as="geometry" />
        </mxCell>
        <mxCell id="s9bLkPgYa7nVFREP0og5-9" value="+ getOrder(String): Order" style="text;strokeColor=none;fillColor=none;align=left;verticalAlign=top;spacingLeft=4;spacingRight=4;overflow=hidden;rotatable=0;points=[[0,0.5],[1,0.5]];portConstraint=eastwest;" vertex="1" parent="s9bLkPgYa7nVFREP0og5-6">
          <mxGeometry y="34" width="160" height="26" as="geometry" />
        </mxCell>
        <mxCell id="s9bLkPgYa7nVFREP0og5-10" value="ProductService" style="swimlane;fontStyle=1;align=center;verticalAlign=top;childLayout=stackLayout;horizontal=1;startSize=26;horizontalStack=0;resizeParent=1;resizeParentMax=0;resizeLast=0;collapsible=1;marginBottom=0;" vertex="1" parent="s9bLkPgYa7nVFREP0og5-1">
          <mxGeometry x="320" y="239" width="160" height="60" as="geometry" />
        </mxCell>
        <mxCell id="s9bLkPgYa7nVFREP0og5-12" value="" style="line;strokeWidth=1;fillColor=none;align=left;verticalAlign=middle;spacingTop=-1;spacingLeft=3;spacingRight=3;rotatable=0;labelPosition=right;points=[];portConstraint=eastwest;" vertex="1" parent="s9bLkPgYa7nVFREP0og5-10">
          <mxGeometry y="26" width="160" height="8" as="geometry" />
        </mxCell>
        <mxCell id="s9bLkPgYa7nVFREP0og5-13" value="+ getProduct(String): Product" style="text;strokeColor=none;fillColor=none;align=left;verticalAlign=top;spacingLeft=4;spacingRight=4;overflow=hidden;rotatable=0;points=[[0,0.5],[1,0.5]];portConstraint=eastwest;" vertex="1" parent="s9bLkPgYa7nVFREP0og5-10">
          <mxGeometry y="34" width="160" height="26" as="geometry" />
        </mxCell>
        <mxCell id="s9bLkPgYa7nVFREP0og5-14" value="Order" style="swimlane;fontStyle=1;align=center;verticalAlign=top;childLayout=stackLayout;horizontal=1;startSize=26;horizontalStack=0;resizeParent=1;resizeParentMax=0;resizeLast=0;collapsible=1;marginBottom=0;" vertex="1" parent="s9bLkPgYa7nVFREP0og5-1">
          <mxGeometry x="590" y="40" width="160" height="112" as="geometry" />
        </mxCell>
        <mxCell id="s9bLkPgYa7nVFREP0og5-15" value="+ items: Product" style="text;strokeColor=none;fillColor=none;align=left;verticalAlign=top;spacingLeft=4;spacingRight=4;overflow=hidden;rotatable=0;points=[[0,0.5],[1,0.5]];portConstraint=eastwest;" vertex="1" parent="s9bLkPgYa7nVFREP0og5-14">
          <mxGeometry y="26" width="160" height="26" as="geometry" />
        </mxCell>
        <mxCell id="s9bLkPgYa7nVFREP0og5-16" value="" style="line;strokeWidth=1;fillColor=none;align=left;verticalAlign=middle;spacingTop=-1;spacingLeft=3;spacingRight=3;rotatable=0;labelPosition=right;points=[];portConstraint=eastwest;" vertex="1" parent="s9bLkPgYa7nVFREP0og5-14">
          <mxGeometry y="52" width="160" height="8" as="geometry" />
        </mxCell>
        <mxCell id="s9bLkPgYa7nVFREP0og5-17" value="+ addProduct(Product): void" style="text;strokeColor=none;fillColor=none;align=left;verticalAlign=top;spacingLeft=4;spacingRight=4;overflow=hidden;rotatable=0;points=[[0,0.5],[1,0.5]];portConstraint=eastwest;" vertex="1" parent="s9bLkPgYa7nVFREP0og5-14">
          <mxGeometry y="60" width="160" height="26" as="geometry" />
        </mxCell>
        <mxCell id="s9bLkPgYa7nVFREP0og5-18" value="+ getTotal(): Int" style="text;strokeColor=none;fillColor=none;align=left;verticalAlign=top;spacingLeft=4;spacingRight=4;overflow=hidden;rotatable=0;points=[[0,0.5],[1,0.5]];portConstraint=eastwest;" vertex="1" parent="s9bLkPgYa7nVFREP0og5-14">
          <mxGeometry y="86" width="160" height="26" as="geometry" />
        </mxCell>
        <mxCell id="s9bLkPgYa7nVFREP0og5-25" style="edgeStyle=orthogonalEdgeStyle;rounded=0;orthogonalLoop=1;jettySize=auto;html=1;exitX=0.5;exitY=0;exitDx=0;exitDy=0;startArrow=open;startFill=0;dashed=1;endArrow=none;endFill=0;" edge="1" parent="s9bLkPgYa7nVFREP0og5-1" source="s9bLkPgYa7nVFREP0og5-21" target="s9bLkPgYa7nVFREP0og5-14">
          <mxGeometry relative="1" as="geometry" />
        </mxCell>
        <mxCell id="s9bLkPgYa7nVFREP0og5-21" value="Product" style="swimlane;fontStyle=1;align=center;verticalAlign=top;childLayout=stackLayout;horizontal=1;startSize=26;horizontalStack=0;resizeParent=1;resizeParentMax=0;resizeLast=0;collapsible=1;marginBottom=0;" vertex="1" parent="s9bLkPgYa7nVFREP0og5-1">
          <mxGeometry x="590" y="239" width="160" height="60" as="geometry" />
        </mxCell>
        <mxCell id="s9bLkPgYa7nVFREP0og5-22" value="+ name: String" style="text;strokeColor=none;fillColor=none;align=left;verticalAlign=top;spacingLeft=4;spacingRight=4;overflow=hidden;rotatable=0;points=[[0,0.5],[1,0.5]];portConstraint=eastwest;" vertex="1" parent="s9bLkPgYa7nVFREP0og5-21">
          <mxGeometry y="26" width="160" height="26" as="geometry" />
        </mxCell>
        <mxCell id="s9bLkPgYa7nVFREP0og5-23" value="" style="line;strokeWidth=1;fillColor=none;align=left;verticalAlign=middle;spacingTop=-1;spacingLeft=3;spacingRight=3;rotatable=0;labelPosition=right;points=[];portConstraint=eastwest;" vertex="1" parent="s9bLkPgYa7nVFREP0og5-21">
          <mxGeometry y="52" width="160" height="8" as="geometry" />
        </mxCell>
        <mxCell id="s9bLkPgYa7nVFREP0og5-26" style="edgeStyle=orthogonalEdgeStyle;rounded=0;orthogonalLoop=1;jettySize=auto;html=1;startArrow=none;startFill=0;endArrow=classic;endFill=1;" edge="1" parent="s9bLkPgYa7nVFREP0og5-1" source="s9bLkPgYa7nVFREP0og5-10" target="s9bLkPgYa7nVFREP0og5-21">
          <mxGeometry relative="1" as="geometry">
            <mxPoint x="440" y="269" as="sourcePoint" />
          </mxGeometry>
        </mxCell>
        <mxCell id="s9bLkPgYa7nVFREP0og5-27" value="*" style="edgeLabel;html=1;align=center;verticalAlign=middle;resizable=0;points=[];" vertex="1" connectable="0" parent="s9bLkPgYa7nVFREP0og5-26">
          <mxGeometry x="0.7947" relative="1" as="geometry">
            <mxPoint y="9" as="offset" />
          </mxGeometry>
        </mxCell>
        <mxCell id="s9bLkPgYa7nVFREP0og5-29" style="edgeStyle=orthogonalEdgeStyle;rounded=0;orthogonalLoop=1;jettySize=auto;html=1;exitX=1;exitY=0.5;exitDx=0;exitDy=0;startArrow=none;startFill=0;endArrow=classic;endFill=1;" edge="1" parent="s9bLkPgYa7nVFREP0og5-1" source="s9bLkPgYa7nVFREP0og5-5" target="s9bLkPgYa7nVFREP0og5-10">
          <mxGeometry relative="1" as="geometry">
            <Array as="points">
              <mxPoint x="250" y="87" />
              <mxPoint x="250" y="269" />
            </Array>
          </mxGeometry>
        </mxCell>
        <mxCell id="s9bLkPgYa7nVFREP0og5-31" value="1" style="edgeLabel;html=1;align=center;verticalAlign=middle;resizable=0;points=[];" vertex="1" connectable="0" parent="s9bLkPgYa7nVFREP0og5-29">
          <mxGeometry x="0.8792" y="1" relative="1" as="geometry">
            <mxPoint y="10" as="offset" />
          </mxGeometry>
        </mxCell>
      </root>
    </mxGraphModel>
  </diagram>
</mxfile>
